<svg xmlns="http://www.w3.org/2000/svg" id="svg7305" width="516" height="524" viewBox="0 0 516 523.99999">
  <path d="M86.143 523.745c-1.1-.266-5.145-1.205-8.992-2.085-19.73-4.517-33.138-13.073-54.88-35.02-8.496-8.577-16.233-17.227-17.193-19.224-2.147-4.462-2.19-12.642-.09-16.666 5.26-10.075 16.382-14.143 26.204-9.585 2.26 1.048 8.343 6.342 13.988 12.17 15.7 16.212 21.772 21.37 30.543 25.94 7.677 4 8.776 4.286 18.287 4.75 12.076.587 20.88-1.165 29.038-5.776 10.66-6.027 15.97-13.624 19.778-28.292 3.012-11.606 2.996-34.047-.036-48.26-6.777-31.767-22.494-64.456-53.683-111.655-6.765-10.237-15.347-22.848-19.072-28.024-15.485-21.52-36.318-51.515-43.845-63.127-3.687-5.687-7.475-11.465-8.418-12.84C13.643 180.032.775 152.6.165 148.52c-.728-4.864.96-10.466 4.767-15.823 4.46-6.27 16.144-8.587 23.742-4.704 4.906 2.507 7.94 6.512 12.14 16.023 5.1 11.553 10.928 21.476 24.275 41.328 11.308 16.818 28.732 41.813 33.286 47.747 2.516 3.28 14.668 21.1 25.935 38.034 25.877 38.887 45.11 78.073 53.66 109.332 5.066 18.51 6.583 29.244 6.615 46.8.058 31.286-6.367 51.056-22.664 69.747-10.103 11.587-21.92 18.83-39.09 23.96-6.983 2.085-11.29 2.667-21.7 2.934-7.144.183-13.89.115-14.988-.152z" id="path7359"/>
  <path d="M409.405.014c-12.022-.234-28.766 2.403-40.51 6.836-33.505 12.65-58.327 36.564-67.052 64.604-1.49 4.788-1.868 9.15-1.858 21.518.01 13.752.33 16.753 2.83 26.427 5.322 20.604 8.867 28.824 33.266 77.16 17.878 35.418 27.94 57.736 26.838 59.523-.307.498-2.91 2.26-5.784 3.918-12.645 7.29-30.37 24.01-35.447 33.44-5.372 9.976-.7 22.712 9.972 27.178 8.868 3.712 17.525.87 24.746-8.126 4.273-5.322 16.508-16.348 18.14-16.348 1.087 0 2.41 5.616 4.72 20.017 3.946 24.586 6.463 56.698 7.65 97.584.77 26.464 1.822 34.557 5.463 42.036 3.22 6.616 7.69 10.366 13.788 11.57 10.294 2.032 20.727-4.66 22.99-14.747.626-2.797.525-6.522-.313-11.49-.682-4.043-1.52-17.71-1.86-30.37-1.307-48.524-5.945-93.11-12.746-122.543-1.075-4.645-1.745-8.988-1.49-9.653.254-.664 3.53-2.213 7.278-3.442 16.078-5.273 29.02-10.375 31.996-12.614l3.198-2.403.648 3.452c.356 1.897.318 3.98-.082 4.63-.4.648-5.05 4.003-10.338 7.453-10.847 7.08-13.352 9.453-15.56 14.75-3.322 7.962-.597 17.34 6.733 23.183 3.092 2.464 4.92 3.085 9.992 3.393 5.454.33 6.915-.005 12.053-2.773 3.216-1.732 6.102-2.893 6.413-2.582.97.97 1.99 10.676 3.29 31.27.934 14.764.99 24.698.227 38.852-.564 10.46-.966 30.05-.893 43.537.11 20.27.413 25.128 1.748 28.024 1.953 4.234 7.316 9.497 11.16 10.948 3.916 1.48 11.11 1.326 15.042-.32 4.163-1.743 9.337-7.207 10.537-11.13.964-3.144 2.11-40.88 2.587-85.07.312-28.865-.76-43.925-5.01-70.45l-2.768-17.262 4.08-4.185c4.8-4.917 8.144-11.777 8.144-16.697 0-3.895-2.853-10.912-5.67-13.94-2.548-2.74-10.136-6.03-13.975-6.055-3.114-.022-3.274-.24-5.673-7.778-3.762-11.813-8.518-24.45-19.117-50.794-11.897-29.57-15.144-39.333-17.162-51.592-1.426-8.664-1.428-10.27-.02-17.187 1.026-5.036 2.715-9.45 4.972-12.985 3.513-5.5 13.3-15.086 20.004-19.593l3.78-2.542 2.728 2.62c2.68 2.57 9.87 5.703 13.067 5.692 3.98-.014 9.566-2.408 13.124-5.628 6.975-6.313 8.612-15.034 4.465-23.788-2.418-5.103-9.886-13.19-14.836-16.064-10.626-6.172-25.944-5.033-38.472 2.86l-3.623 2.285-.083-5.1c-.11-6.814-1.752-9.596-11.533-19.523-10.73-10.89-18.724-16.72-25.712-18.754-2.598-.757-6.08-1.155-10.087-1.234zm-5.69 36.393c5.07.175 8.398 2.756 16.11 10.528 8.925 8.997 12.292 10.988 18.594 11.002 1.418.003 2.878.306 3.244.672.366.366-1.98 3.426-5.214 6.8-16.516 17.23-23.86 35.99-22.736 58.088.938 18.458 4.18 29.526 21.807 74.42 6.562 16.708 11.656 30.652 11.32 30.988-.334.335-3.17.69-6.304.786-4.16.128-10.24 1.826-22.53 6.292-9.26 3.363-17.478 6.115-18.266 6.115-.79 0-1.698-.79-2.022-1.753-3.094-9.208-14.49-33.654-28.81-61.802-27.366-53.796-31.732-65.402-31.815-84.572-.056-13.067 1.578-18.738 7.865-27.297 8.782-11.956 35.37-26.912 52.88-29.745 2.305-.372 4.187-.582 5.877-.523z" id="path7355"/>
  <path d="M276.976 225.667c-9.086.092-14.652 1.912-25.415 8.317-14.08 8.38-31.76 27.802-42.774 46.985-8.346 14.536-14.745 30.5-18.322 45.7-.677 2.877-2.376 6.28-3.993 8.007-7.11 7.59-7.806 17.517-1.856 26.523 1.062 1.608 1.88 5.72 2.285 11.51 1.603 22.882 11.598 45.552 26.292 59.64 15.166 14.54 26.987 20.87 45.8 24.523 4.852.942 12.5 1.24 24.978.977 19.317-.408 27.243-1.707 46.96-7.704 14.07-4.28 15.263-4.807 18.7-8.25 10.567-10.585 5.833-28.814-8.505-32.757-5.01-1.38-9.39-.708-28.68 4.385-30.27 7.993-49.17 6.946-65.755-3.64-5.175-3.303-12.566-13.204-15.8-21.164-3.054-7.523-5.37-18.894-5.37-26.383v-5.952l10.242-7.284c70.458-50.105 91.228-86.67 64.35-113.29-7.943-7.866-13.363-10.242-23.136-10.143zm-9.89 43.386c.23-.012.394.063.494.225 1.01 1.637.04 3.25-6.032 10.032-6.21 6.938-12.118 11.69-13.798 11.1-1.872-.656 4.037-8.41 12.157-15.952 3.91-3.632 6.18-5.35 7.18-5.405z" id="path7347"/>
</svg>
