<?xml version="1.0" encoding="UTF-8" standalone="no"?>
<!-- Generator: Adobe Illustrator 17.1.0, SVG Export Plug-In . SVG Version: 6.00 Build 0)  -->

<svg
   xmlns:dc="http://purl.org/dc/elements/1.1/"
   xmlns:cc="http://creativecommons.org/ns#"
   xmlns:rdf="http://www.w3.org/1999/02/22-rdf-syntax-ns#"
   xmlns:svg="http://www.w3.org/2000/svg"
   xmlns="http://www.w3.org/2000/svg"
   xmlns:sodipodi="http://sodipodi.sourceforge.net/DTD/sodipodi-0.dtd"
   xmlns:inkscape="http://www.inkscape.org/namespaces/inkscape"
   version="1.1"
   id="Layer_1"
   x="0px"
   y="0px"
   width="70.222221"
   height="70.222221"
   viewBox="0 0 70.222222 70.222221"
   enable-background="new 0 0 100 32"
   xml:space="preserve"
   inkscape:version="0.91 r13725"
   sodipodi:docname="jeff-spot.svg"><metadata
     id="metadata11"><rdf:RDF><cc:Work
         rdf:about=""><dc:format>image/svg+xml</dc:format><dc:type
           rdf:resource="http://purl.org/dc/dcmitype/StillImage" /><dc:title></dc:title></cc:Work></rdf:RDF></metadata><defs
     id="defs9" /><sodipodi:namedview
     pagecolor="#ffffff"
     bordercolor="#666666"
     borderopacity="1"
     objecttolerance="10"
     gridtolerance="10"
     guidetolerance="10"
     inkscape:pageopacity="0"
     inkscape:pageshadow="2"
     inkscape:window-width="1391"
     inkscape:window-height="876"
     id="namedview7"
     showgrid="false"
     fit-margin-top="0"
     fit-margin-left="0"
     fit-margin-right="0"
     fit-margin-bottom="0"
     inkscape:zoom="6.3"
     inkscape:cx="66.704483"
     inkscape:cy="17.55525"
     inkscape:window-x="49"
     inkscape:window-y="24"
     inkscape:window-maximized="1"
     inkscape:current-layer="Layer_1" /><circle
     cx="35.111111"
     cy="35.111111"
     r="35.111111"
     id="circle5"
     style="fill:#700000;fill-opacity:1" /><g
     id="g7049"
     transform="translate(28.211059,31.521104)"><path
       inkscape:connector-curvature="0"
       id="path7359"
       d="M 6.9193271,34.681526 C 6.8347197,34.660999 6.5232088,34.588739 6.2270828,34.52095 4.7081682,34.173241 3.6759633,33.514574 2.0022013,31.824978 1.3481465,31.164735 0.75252406,30.498804 0.67859271,30.345131 0.5133154,30.00158 0.50990054,29.371844 0.67162771,29.062092 1.0766062,28.286479 1.9328197,27.973291 2.6889432,28.324198 c 0.1738454,0.08068 0.6422256,0.488241 1.0768235,0.937002 1.2086042,1.24798 1.6760848,1.644996 2.3513001,1.99689 0.5908757,0.307938 0.6755377,0.329922 1.4077163,0.365553 0.9295998,0.04524 1.6074919,-0.08958 2.2354484,-0.444592 0.8205475,-0.463885 1.2293795,-1.048715 1.5225145,-2.17793 0.23194,-0.893473 0.230656,-2.621051 -0.0028,-3.715236 C 10.758265,22.84037 9.5483449,20.323847 7.1472659,16.690296 6.6264903,15.902215 5.9658125,14.931402 5.6790773,14.532932 4.4869867,12.876282 2.8831882,10.567239 2.3036873,9.6732779 2.0199053,9.2355035 1.7282941,8.7906439 1.6556702,8.6847015 1.3381145,8.2214858 0.34751322,6.1094633 0.30049432,5.7953884 0.24444642,5.4209748 0.37439552,4.9897272 0.66754541,4.5773209 1.0107449,4.0945208 1.9103391,3.916264 2.4952237,4.2151645 2.872943,4.408195 3.1065368,4.7165107 3.4297684,5.4486549 3.8224403,6.3380863 4.2711377,7.1019435 5.2986275,8.6302031 6.1690934,9.9249146 7.5104785,11.84911 7.861062,12.305992 c 0.1937213,0.252449 1.1292117,1.624281 1.996593,2.927852 1.991979,2.993711 3.472551,6.010382 4.130943,8.416807 0.389873,1.425003 0.506632,2.251249 0.509116,3.602796 0.0045,2.408467 -0.490139,3.930473 -1.74474,5.369345 -0.777805,0.892047 -1.687507,1.449605 -3.0094007,1.844472 -0.5374967,0.160557 -0.8691434,0.205416 -1.6705454,0.225957 -0.5499512,0.01409 -1.0691336,0.0088 -1.153741,-0.0117 z"
       style="fill:#ffffff;fill-opacity:1;stroke:none;stroke-width:0.07698341;stroke-opacity:1" /><path
       inkscape:connector-curvature="0"
       id="path7355"
       d="m 31.805129,-5.6370636 c -0.925484,-0.01809 -2.214517,0.184974 -3.118552,0.526249 -2.579379,0.973722 -4.490245,2.8147945 -5.161937,4.97340505 -0.114697,0.3685898 -0.143784,0.7043572 -0.143015,1.65654795 7.9e-4,1.0586679 0.02545,1.2896532 0.217828,2.0344192 0.40974,1.586228 0.682624,2.2190491 2.560913,5.9401251 1.376296,2.7265853 2.150943,4.4447163 2.066067,4.5822923 -0.02367,0.03836 -0.224069,0.174054 -0.445272,0.301575 -0.973464,0.561194 -2.337917,1.848419 -2.728866,2.57436 -0.413547,0.767914 -0.05386,1.748357 0.767658,2.092203 0.682768,0.285772 1.349263,0.06688 1.905173,-0.62557 0.328932,-0.409714 1.27081,-1.258512 1.396506,-1.258512 0.0836,0 0.185515,0.432268 0.363398,1.540974 0.30365,1.892621 0.497444,4.364696 0.588889,7.512252 0.05919,2.037313 0.140171,2.660274 0.420484,3.236048 0.247993,0.509366 0.592021,0.798063 1.061501,0.890724 0.792519,0.15642 1.59565,-0.358738 1.769819,-1.135265 0.04829,-0.215306 0.0405,-0.502076 -0.02404,-0.884555 -0.05251,-0.311265 -0.116914,-1.363431 -0.143165,-2.338098 -0.100615,-3.735412 -0.457675,-7.167898 -0.98128,-9.433655 -0.08264,-0.357577 -0.134214,-0.69197 -0.114623,-0.743097 0.01958,-0.05113 0.271756,-0.170366 0.560345,-0.265006 1.23774,-0.405909 2.233928,-0.798723 2.463115,-0.971085 l 0.246221,-0.185098 0.04987,0.265757 c 0.02739,0.146175 0.0245,0.306572 -0.0063,0.356502 -0.0308,0.04993 -0.388892,0.308167 -0.795901,0.573803 -0.835,0.544976 -1.027845,0.727684 -1.197906,1.135414 -0.2557,0.613016 -0.04592,1.335015 0.518432,1.784762 0.238009,0.189677 0.378711,0.237506 0.76916,0.261243 0.419931,0.02553 0.532409,-3.08e-4 0.927949,-0.213388 0.24757,-0.133344 0.469724,-0.222752 0.493645,-0.198792 0.0745,0.07463 0.153114,0.82185 0.253283,2.407172 0.07182,1.136677 0.07622,1.901456 0.01743,2.991055 -0.04345,0.805159 -0.07442,2.313388 -0.06881,3.35162 0.0084,1.560527 0.03181,1.934431 0.134603,2.157365 0.150317,0.325996 0.563204,0.731103 0.859145,0.84287 0.301449,0.113846 0.85519,0.10204 1.157947,-0.02468 0.320478,-0.134134 0.718825,-0.554782 0.811225,-0.856715 0.07408,-0.242101 0.162314,-3.14713 0.199049,-6.549142 0.024,-2.222086 -0.0584,-3.381407 -0.385782,-5.423358 l -0.213036,-1.328939 0.314274,-0.322189 c 0.369336,-0.378453 0.626895,-0.906507 0.626895,-1.285299 0,-0.29985 -0.219666,-0.840073 -0.436408,-1.073114 -0.196266,-0.211034 -0.780404,-0.46418 -1.075922,-0.466206 -0.239648,-0.0016 -0.251965,-0.01855 -0.43671,-0.598782 C 37.558886,11.261776 37.192687,10.288842 36.376809,8.2609053 35.460939,5.984429 35.210936,5.2329144 35.055566,4.2891339 34.945792,3.6221908 34.945682,3.4984669 35.054066,2.9660624 35.132996,2.5783613 35.263037,2.2385551 35.436844,1.9663847 35.707242,1.5429584 36.460609,0.80504405 36.976816,0.45806565 l 0.29099,-0.1956326 0.210016,0.2016517 c 0.206228,0.1979181 0.759824,0.4390618 1.005917,0.4382145 0.306557,-0.00108 0.73648,-0.1853277 1.010424,-0.4332487 0.536951,-0.4859421 0.662951,-1.1573641 0.343718,-1.83126185 -0.186084,-0.392814 -0.76102,-1.0153927 -1.142023,-1.2366927 -0.818026,-0.4751361 -1.997268,-0.3874182 -2.961718,0.220312 l -0.27897,0.1757668 -0.0063,-0.3926166 c -0.0084,-0.5245021 -0.134815,-0.7386673 -0.887839,-1.5029018 -0.825973,-0.838259 -1.441407,-1.287097 -1.979387,-1.443762 -0.199986,-0.05824 -0.468028,-0.08893 -0.776523,-0.09496 z M 31.36707,-2.835469 c 0.390262,0.013491 0.64652,0.2122115 1.240119,0.8105157 0.687183,0.6926364 0.946431,0.8458863 1.431509,0.8469346 0.109283,2.312e-4 0.22166,0.023551 0.249827,0.051768 0.02817,0.028218 -0.152413,0.26379475 -0.401405,0.52354065 -1.271422,1.3263406 -1.836751,2.77071225 -1.75029,4.47183625 0.07223,1.4209636 0.321783,2.2729953 1.678782,5.7289956 0.505077,1.2863362 0.897239,2.3598372 0.871464,2.3856502 -0.02577,0.02581 -0.244134,0.05303 -0.485381,0.06049 -0.320341,0.0099 -0.788196,0.140604 -1.734517,0.484414 -0.712673,0.258925 -1.345418,0.47072 -1.40612,0.47072 -0.06069,0 -0.130713,-0.06068 -0.155635,-0.134836 C 30.66723,12.155651 29.789996,10.273752 28.687628,8.1068036 26.580837,3.965431 26.244694,3.0719428 26.238334,1.596185 c -0.0043,-1.00590865 0.121442,-1.44251915 0.605414,-2.10138395 0.67613,-0.92047885 2.722936,-2.07179515 4.070989,-2.28994245 0.177341,-0.028699 0.322245,-0.044825 0.452333,-0.040331 z"
       style="fill:#ffffff;fill-opacity:1;stroke:none;stroke-width:0.07698341;stroke-opacity:1" /><path
       inkscape:connector-curvature="0"
       id="path7347"
       d="m 21.610302,11.734416 c -0.699474,0.0071 -1.127926,0.147192 -1.956551,0.640318 -1.083938,0.645069 -2.44516,2.140271 -3.292966,3.617077 -0.642456,1.119105 -1.135088,2.348091 -1.410477,3.518207 -0.05212,0.22144 -0.182883,0.483526 -0.307363,0.61639 -0.547535,0.584383 -0.601005,1.348474 -0.143017,2.041791 0.08179,0.123798 0.144665,0.440383 0.175916,0.88606 0.123527,1.76155 0.892919,3.506782 2.024153,4.591322 1.1675,1.119321 2.077528,1.60662 3.525817,1.887844 0.373528,0.07253 0.962413,0.09551 1.9229,0.07524 1.487119,-0.03138 2.0973,-0.131432 3.615054,-0.593066 1.0833,-0.329492 1.175072,-0.370045 1.439772,-0.6352 0.813386,-0.814791 0.448968,-2.218154 -0.654839,-2.52169 -0.385687,-0.10606 -0.722769,-0.05444 -2.20788,0.33769 -2.330301,0.615295 -3.785375,0.534691 -5.062035,-0.280205 -0.398432,-0.254321 -0.967358,-1.016528 -1.216235,-1.62931 -0.235254,-0.579242 -0.413423,-1.454579 -0.413423,-2.031107 l 0,-0.458229 0.78839,-0.56071 c 5.424109,-3.857397 7.023012,-6.672322 4.953871,-8.72155 -0.611467,-0.605584 -1.028709,-0.788491 -1.781087,-0.780872 z m -0.761347,3.340033 c 0.01776,-10e-4 0.03033,0.0049 0.038,0.0173 0.07775,0.126017 0.0031,0.250213 -0.464351,0.772293 -0.478156,0.534101 -0.932917,0.900006 -1.062251,0.854608 -0.14408,-0.05058 0.310792,-0.647449 0.935911,-1.228114 0.300985,-0.27958 0.475742,-0.411889 0.552684,-0.416093 z"
       style="fill:#ffffff;fill-opacity:1;stroke:none;stroke-width:0.07698341;stroke-opacity:1" /></g></svg>